<svg id="visual" viewBox="0 0 540 960" width="540" height="960" xmlns="http://www.w3.org/2000/svg" xmlns:xlink="http://www.w3.org/1999/xlink" version="1.1"><rect x="0" y="0" width="540" height="960" fill="#001220"></rect><defs><linearGradient id="grad1_0" x1="0%" y1="0%" x2="100%" y2="100%"><stop offset="30%" stop-color="#19f5aa" stop-opacity="1"></stop><stop offset="70%" stop-color="#19f5aa" stop-opacity="1"></stop></linearGradient></defs><defs><linearGradient id="grad1_1" x1="0%" y1="0%" x2="100%" y2="100%"><stop offset="30%" stop-color="#19f5aa" stop-opacity="1"></stop><stop offset="70%" stop-color="#001220" stop-opacity="1"></stop></linearGradient></defs><defs><linearGradient id="grad2_0" x1="0%" y1="0%" x2="100%" y2="100%"><stop offset="30%" stop-color="#19f5aa" stop-opacity="1"></stop><stop offset="70%" stop-color="#19f5aa" stop-opacity="1"></stop></linearGradient></defs><defs><linearGradient id="grad2_1" x1="0%" y1="0%" x2="100%" y2="100%"><stop offset="30%" stop-color="#001220" stop-opacity="1"></stop><stop offset="70%" stop-color="#19f5aa" stop-opacity="1"></stop></linearGradient></defs><g transform="translate(540, 0)"><path d="M0 459C-63.2 457.6 -126.3 456.2 -175.7 424.1C-225 391.9 -260.5 329 -273.7 273.7C-286.8 218.3 -277.7 170.6 -304.9 126.3C-332.1 81.9 -395.5 41 -459 0L0 0Z" fill="#007c8e"></path><path d="M0 229.5C-31.6 228.8 -63.2 228.1 -87.8 212C-112.5 196 -130.2 164.5 -136.8 136.8C-143.4 109.2 -138.9 85.3 -152.4 63.1C-166 41 -197.8 20.5 -229.5 0L0 0Z" fill="#19f5aa"></path></g><g transform="translate(0, 960)"><path d="M0 -459C62.6 -457.2 125.3 -455.3 175.7 -424.1C226.1 -392.8 264.2 -332.2 276.5 -276.5C288.7 -220.8 275.1 -170 301.2 -124.8C327.3 -79.5 393.1 -39.7 459 0L0 0Z" fill="#007c8e"></path><path d="M0 -229.5C31.3 -228.6 62.6 -227.7 87.8 -212C113 -196.4 132.1 -166.1 138.2 -138.2C144.4 -110.4 137.5 -85 150.6 -62.4C163.6 -39.7 196.6 -19.9 229.5 0L0 0Z" fill="#19f5aa"></path></g></svg>