<svg id="visual" viewBox="0 0 900 600" width="900" height="600" xmlns="http://www.w3.org/2000/svg" xmlns:xlink="http://www.w3.org/1999/xlink" version="1.1"><rect x="0" y="0" width="900" height="600" fill="#001220"></rect><defs><linearGradient id="grad1_0" x1="33.3%" y1="0%" x2="100%" y2="100%"><stop offset="20%" stop-color="#19f5aa" stop-opacity="1"></stop><stop offset="80%" stop-color="#19f5aa" stop-opacity="1"></stop></linearGradient></defs><defs><linearGradient id="grad1_1" x1="33.3%" y1="0%" x2="100%" y2="100%"><stop offset="20%" stop-color="#19f5aa" stop-opacity="1"></stop><stop offset="80%" stop-color="#001220" stop-opacity="1"></stop></linearGradient></defs><defs><linearGradient id="grad2_0" x1="0%" y1="0%" x2="66.7%" y2="100%"><stop offset="20%" stop-color="#19f5aa" stop-opacity="1"></stop><stop offset="80%" stop-color="#19f5aa" stop-opacity="1"></stop></linearGradient></defs><defs><linearGradient id="grad2_1" x1="0%" y1="0%" x2="66.7%" y2="100%"><stop offset="20%" stop-color="#001220" stop-opacity="1"></stop><stop offset="80%" stop-color="#19f5aa" stop-opacity="1"></stop></linearGradient></defs><g transform="translate(900, 0)"><path d="M0 459.7C-45.1 413.1 -90.1 366.4 -143.5 346.5C-196.9 326.5 -258.6 333.2 -309.7 309.7C-360.9 286.2 -401.5 232.6 -424.7 175.9C-448 119.3 -453.8 59.6 -459.7 0L0 0Z" fill="#007c8e"></path><path d="M0 229.9C-22.5 206.5 -45.1 183.2 -71.8 173.2C-98.4 163.2 -129.3 166.6 -154.9 154.9C-180.4 143.1 -200.7 116.3 -212.4 88C-224 59.6 -226.9 29.8 -229.9 0L0 0Z" fill="#19f5aa"></path></g><g transform="translate(0, 600)"><path d="M0 -459.7C56.6 -424.9 113.2 -390 143.9 -347.4C174.6 -304.7 179.5 -254.2 230.5 -230.5C281.6 -206.8 378.8 -209.9 424.7 -175.9C470.6 -142 465.2 -71 459.7 0L0 0Z" fill="#007c8e"></path><path d="M0 -229.9C28.3 -212.4 56.6 -195 71.9 -173.7C87.3 -152.4 89.7 -127.1 115.3 -115.3C140.8 -103.4 189.4 -104.9 212.4 -88C235.3 -71 232.6 -35.5 229.9 0L0 0Z" fill="#19f5aa"></path></g></svg>