<svg id="visual" viewBox="0 0 540 960" width="540" height="960" xmlns="http://www.w3.org/2000/svg" xmlns:xlink="http://www.w3.org/1999/xlink" version="1.1"><rect width="540" height="960" fill="#19f5aa"></rect><g><g transform="translate(449 173)"><path d="M86 -32.4C97.4 7.2 83 50.7 51.1 75C19.2 99.3 -30.1 104.3 -63.2 81.5C-96.4 58.7 -113.4 8.2 -100.1 -33.9C-86.9 -75.9 -43.4 -109.5 -3.1 -108.5C37.3 -107.5 74.6 -71.9 86 -32.4Z" stroke="#F7760E" fill="none" stroke-width="20"></path></g><g transform="translate(253 678)"><path d="M44.1 -13C50.5 5.3 44.3 28.9 28.5 40.8C12.6 52.8 -13 52.9 -29.7 40.8C-46.5 28.7 -54.4 4.2 -48 -14.2C-41.5 -32.5 -20.8 -44.8 -0.9 -44.5C18.9 -44.2 37.7 -31.3 44.1 -13Z" stroke="#F7760E" fill="none" stroke-width="20"></path></g><g transform="translate(136 219)"><path d="M60.2 -17.5C68.1 4.7 57.7 34.9 37.5 49C17.2 63.1 -12.9 61.2 -33.7 46.1C-54.5 31 -66.1 2.9 -58.9 -18.3C-51.7 -39.5 -25.9 -53.7 0.1 -53.7C26.2 -53.8 52.3 -39.6 60.2 -17.5Z" stroke="#F7760E" fill="none" stroke-width="20"></path></g></g></svg>