<svg id="visual" viewBox="0 0 540 960" width="540" height="960" xmlns="http://www.w3.org/2000/svg" xmlns:xlink="http://www.w3.org/1999/xlink" version="1.1"><rect x="0" y="0" width="540" height="960" fill="#2d2c38"></rect><path d="M0 625L7 626.8C14 628.7 28 632.3 41.8 624.7C55.7 617 69.3 598 83.2 575.7C97 553.3 111 527.7 124.8 534.8C138.7 542 152.3 582 166.2 580.7C180 579.3 194 536.7 207.8 522.3C221.7 508 235.3 522 249.2 547.8C263 573.7 277 611.3 290.8 613C304.7 614.7 318.3 580.3 332.2 574C346 567.7 360 589.3 373.8 596.8C387.7 604.3 401.3 597.7 415.2 593.5C429 589.3 443 587.7 456.8 593.5C470.7 599.3 484.3 612.7 498.2 623.5C512 634.3 526 642.7 533 646.8L540 651L540 961L533 961C526 961 512 961 498.2 961C484.3 961 470.7 961 456.8 961C443 961 429 961 415.2 961C401.3 961 387.7 961 373.8 961C360 961 346 961 332.2 961C318.3 961 304.7 961 290.8 961C277 961 263 961 249.2 961C235.3 961 221.7 961 207.8 961C194 961 180 961 166.2 961C152.3 961 138.7 961 124.8 961C111 961 97 961 83.2 961C69.3 961 55.7 961 41.8 961C28 961 14 961 7 961L0 961Z" fill="#3763f4"></path><path d="M0 584L7 586.7C14 589.3 28 594.7 41.8 607C55.7 619.3 69.3 638.7 83.2 643.2C97 647.7 111 637.3 124.8 631.7C138.7 626 152.3 625 166.2 637C180 649 194 674 207.8 684.3C221.7 694.7 235.3 690.3 249.2 694.5C263 698.7 277 711.3 290.8 702.7C304.7 694 318.3 664 332.2 640.8C346 617.7 360 601.3 373.8 609C387.7 616.7 401.3 648.3 415.2 647.7C429 647 443 614 456.8 611.3C470.7 608.7 484.3 636.3 498.2 639.2C512 642 526 620 533 609L540 598L540 961L533 961C526 961 512 961 498.2 961C484.3 961 470.7 961 456.8 961C443 961 429 961 415.2 961C401.3 961 387.7 961 373.8 961C360 961 346 961 332.2 961C318.3 961 304.7 961 290.8 961C277 961 263 961 249.2 961C235.3 961 221.7 961 207.8 961C194 961 180 961 166.2 961C152.3 961 138.7 961 124.8 961C111 961 97 961 83.2 961C69.3 961 55.7 961 41.8 961C28 961 14 961 7 961L0 961Z" fill="#0096ff"></path><path d="M0 786L7 778.8C14 771.7 28 757.3 41.8 744.2C55.7 731 69.3 719 83.2 707.2C97 695.3 111 683.7 124.8 676.8C138.7 670 152.3 668 166.2 684.2C180 700.3 194 734.7 207.8 745.7C221.7 756.7 235.3 744.3 249.2 732.3C263 720.3 277 708.7 290.8 703.7C304.7 698.7 318.3 700.3 332.2 710.2C346 720 360 738 373.8 747.8C387.7 757.7 401.3 759.3 415.2 755.7C429 752 443 743 456.8 738.2C470.7 733.3 484.3 732.7 498.2 731.5C512 730.3 526 728.7 533 727.8L540 727L540 961L533 961C526 961 512 961 498.2 961C484.3 961 470.7 961 456.8 961C443 961 429 961 415.2 961C401.3 961 387.7 961 373.8 961C360 961 346 961 332.2 961C318.3 961 304.7 961 290.8 961C277 961 263 961 249.2 961C235.3 961 221.7 961 207.8 961C194 961 180 961 166.2 961C152.3 961 138.7 961 124.8 961C111 961 97 961 83.2 961C69.3 961 55.7 961 41.8 961C28 961 14 961 7 961L0 961Z" fill="#00beff"></path><path d="M0 840L7 830.5C14 821 28 802 41.8 793.8C55.7 785.7 69.3 788.3 83.2 793.2C97 798 111 805 124.8 813.2C138.7 821.3 152.3 830.7 166.2 835.3C180 840 194 840 207.8 834C221.7 828 235.3 816 249.2 813.2C263 810.3 277 816.7 290.8 823.7C304.7 830.7 318.3 838.3 332.2 824.2C346 810 360 774 373.8 765.3C387.7 756.7 401.3 775.3 415.2 774.8C429 774.3 443 754.7 456.8 749.8C470.7 745 484.3 755 498.2 766.8C512 778.7 526 792.3 533 799.2L540 806L540 961L533 961C526 961 512 961 498.2 961C484.3 961 470.7 961 456.8 961C443 961 429 961 415.2 961C401.3 961 387.7 961 373.8 961C360 961 346 961 332.2 961C318.3 961 304.7 961 290.8 961C277 961 263 961 249.2 961C235.3 961 221.7 961 207.8 961C194 961 180 961 166.2 961C152.3 961 138.7 961 124.8 961C111 961 97 961 83.2 961C69.3 961 55.7 961 41.8 961C28 961 14 961 7 961L0 961Z" fill="#00dfef"></path><path d="M0 872L7 874.2C14 876.3 28 880.7 41.8 871.3C55.7 862 69.3 839 83.2 833C97 827 111 838 124.8 838.8C138.7 839.7 152.3 830.3 166.2 828.8C180 827.3 194 833.7 207.8 847.7C221.7 861.7 235.3 883.3 249.2 888.5C263 893.7 277 882.3 290.8 874.5C304.7 866.7 318.3 862.3 332.2 862C346 861.7 360 865.3 373.8 860.8C387.7 856.3 401.3 843.7 415.2 835.3C429 827 443 823 456.8 833.7C470.7 844.3 484.3 869.7 498.2 882.3C512 895 526 895 533 895L540 895L540 961L533 961C526 961 512 961 498.2 961C484.3 961 470.7 961 456.8 961C443 961 429 961 415.2 961C401.3 961 387.7 961 373.8 961C360 961 346 961 332.2 961C318.3 961 304.7 961 290.8 961C277 961 263 961 249.2 961C235.3 961 221.7 961 207.8 961C194 961 180 961 166.2 961C152.3 961 138.7 961 124.8 961C111 961 97 961 83.2 961C69.3 961 55.7 961 41.8 961C28 961 14 961 7 961L0 961Z" fill="#19f5aa"></path></svg>