<svg id="visual" viewBox="0 0 900 600" width="900" height="600" xmlns="http://www.w3.org/2000/svg" xmlns:xlink="http://www.w3.org/1999/xlink" version="1.1"><rect x="0" y="0" width="900" height="600" fill="#2d2c38"></rect><path d="M0 324L11.5 328C23 332 46 340 69 351.5C92 363 115 378 138.2 387.2C161.3 396.3 184.7 399.7 207.8 393.2C231 386.7 254 370.3 277 357.3C300 344.3 323 334.7 346 345.3C369 356 392 387 415.2 389C438.3 391 461.7 364 484.8 359.7C508 355.3 531 373.7 554 374.8C577 376 600 360 623 356.7C646 353.3 669 362.7 692.2 370C715.3 377.3 738.7 382.7 761.8 371.8C785 361 808 334 831 328.5C854 323 877 339 888.5 347L900 355L900 601L888.5 601C877 601 854 601 831 601C808 601 785 601 761.8 601C738.7 601 715.3 601 692.2 601C669 601 646 601 623 601C600 601 577 601 554 601C531 601 508 601 484.8 601C461.7 601 438.3 601 415.2 601C392 601 369 601 346 601C323 601 300 601 277 601C254 601 231 601 207.8 601C184.7 601 161.3 601 138.2 601C115 601 92 601 69 601C46 601 23 601 11.5 601L0 601Z" fill="#3763f4"></path><path d="M0 365L11.5 368.3C23 371.7 46 378.3 69 378.7C92 379 115 373 138.2 384.5C161.3 396 184.7 425 207.8 428.2C231 431.3 254 408.7 277 396.2C300 383.7 323 381.3 346 376C369 370.7 392 362.3 415.2 357.8C438.3 353.3 461.7 352.7 484.8 360.5C508 368.3 531 384.7 554 388.7C577 392.7 600 384.3 623 386C646 387.7 669 399.3 692.2 408.5C715.3 417.7 738.7 424.3 761.8 429.8C785 435.3 808 439.7 831 430C854 420.3 877 396.7 888.5 384.8L900 373L900 601L888.5 601C877 601 854 601 831 601C808 601 785 601 761.8 601C738.7 601 715.3 601 692.2 601C669 601 646 601 623 601C600 601 577 601 554 601C531 601 508 601 484.8 601C461.7 601 438.3 601 415.2 601C392 601 369 601 346 601C323 601 300 601 277 601C254 601 231 601 207.8 601C184.7 601 161.3 601 138.2 601C115 601 92 601 69 601C46 601 23 601 11.5 601L0 601Z" fill="#0096ff"></path><path d="M0 480L11.5 479.7C23 479.3 46 478.7 69 467.2C92 455.7 115 433.3 138.2 427.3C161.3 421.3 184.7 431.7 207.8 440.2C231 448.7 254 455.3 277 463.3C300 471.3 323 480.7 346 483.2C369 485.7 392 481.3 415.2 468C438.3 454.7 461.7 432.3 484.8 422.5C508 412.7 531 415.3 554 422.7C577 430 600 442 623 444.5C646 447 669 440 692.2 433.8C715.3 427.7 738.7 422.3 761.8 419C785 415.7 808 414.3 831 415C854 415.7 877 418.3 888.5 419.7L900 421L900 601L888.5 601C877 601 854 601 831 601C808 601 785 601 761.8 601C738.7 601 715.3 601 692.2 601C669 601 646 601 623 601C600 601 577 601 554 601C531 601 508 601 484.8 601C461.7 601 438.3 601 415.2 601C392 601 369 601 346 601C323 601 300 601 277 601C254 601 231 601 207.8 601C184.7 601 161.3 601 138.2 601C115 601 92 601 69 601C46 601 23 601 11.5 601L0 601Z" fill="#00beff"></path><path d="M0 501L11.5 497C23 493 46 485 69 486.5C92 488 115 499 138.2 496.3C161.3 493.7 184.7 477.3 207.8 475.2C231 473 254 485 277 490.8C300 496.7 323 496.3 346 500C369 503.7 392 511.3 415.2 507.7C438.3 504 461.7 489 484.8 485.7C508 482.3 531 490.7 554 499.2C577 507.7 600 516.3 623 515.5C646 514.7 669 504.3 692.2 496.7C715.3 489 738.7 484 761.8 486.7C785 489.3 808 499.7 831 497.3C854 495 877 480 888.5 472.5L900 465L900 601L888.5 601C877 601 854 601 831 601C808 601 785 601 761.8 601C738.7 601 715.3 601 692.2 601C669 601 646 601 623 601C600 601 577 601 554 601C531 601 508 601 484.8 601C461.7 601 438.3 601 415.2 601C392 601 369 601 346 601C323 601 300 601 277 601C254 601 231 601 207.8 601C184.7 601 161.3 601 138.2 601C115 601 92 601 69 601C46 601 23 601 11.5 601L0 601Z" fill="#00dfef"></path><path d="M0 553L11.5 552.5C23 552 46 551 69 549.8C92 548.7 115 547.3 138.2 541.7C161.3 536 184.7 526 207.8 523.8C231 521.7 254 527.3 277 532.2C300 537 323 541 346 538.7C369 536.3 392 527.7 415.2 531.3C438.3 535 461.7 551 484.8 555C508 559 531 551 554 543.8C577 536.7 600 530.3 623 526.3C646 522.3 669 520.7 692.2 524.7C715.3 528.7 738.7 538.3 761.8 541.7C785 545 808 542 831 540.5C854 539 877 539 888.5 539L900 539L900 601L888.5 601C877 601 854 601 831 601C808 601 785 601 761.8 601C738.7 601 715.3 601 692.2 601C669 601 646 601 623 601C600 601 577 601 554 601C531 601 508 601 484.8 601C461.7 601 438.3 601 415.2 601C392 601 369 601 346 601C323 601 300 601 277 601C254 601 231 601 207.8 601C184.7 601 161.3 601 138.2 601C115 601 92 601 69 601C46 601 23 601 11.5 601L0 601Z" fill="#19f5aa"></path></svg>