<svg id="visual" viewBox="0 0 900 600" width="900" height="600" xmlns="http://www.w3.org/2000/svg" xmlns:xlink="http://www.w3.org/1999/xlink" version="1.1"><g stroke-width="4" stroke-linejoin="bevel"><path d="M466 301L419 330L497.5 403Z" fill="#00479b" stroke="#19f5aa"></path><path d="M497.5 403L528.5 369L466 301Z" fill="#003f85" stroke="#19f5aa"></path><path d="M419 330L385.5 446L497.5 403Z" fill="#3763f4" stroke="#19f5aa"></path><path d="M492.5 143L433 198L466 301Z" fill="#002e59" stroke="#19f5aa"></path><path d="M466 301L433 198L419 330Z" fill="#3763f4" stroke="#19f5aa"></path><path d="M419 330L258 322L385.5 446Z" fill="#00479b" stroke="#19f5aa"></path><path d="M280.5 241L258 322L419 330Z" fill="#003f85" stroke="#19f5aa"></path><path d="M258 322L287.5 470L385.5 446Z" fill="#1256c7" stroke="#19f5aa"></path><path d="M287.5 470L428 567L385.5 446Z" fill="#002444" stroke="#19f5aa"></path><path d="M385.5 446L428 567L497.5 403Z" fill="#245dde" stroke="#19f5aa"></path><path d="M715.5 332L688 295L528.5 369Z" fill="#002e59" stroke="#19f5aa"></path><path d="M631.5 183L492.5 143L466 301Z" fill="#3763f4" stroke="#19f5aa"></path><path d="M433 198L280.5 241L419 330Z" fill="#3763f4" stroke="#19f5aa"></path><path d="M301.5 187L280.5 241L433 198Z" fill="#3763f4" stroke="#19f5aa"></path><path d="M615.5 536L528.5 369L497.5 403Z" fill="#003f85" stroke="#19f5aa"></path><path d="M528.5 369L631.5 183L466 301Z" fill="#3763f4" stroke="#19f5aa"></path><path d="M428 567L615.5 536L497.5 403Z" fill="#003f85" stroke="#19f5aa"></path><path d="M371.5 118L301.5 187L433 198Z" fill="#003f85" stroke="#19f5aa"></path><path d="M688 295L631.5 183L528.5 369Z" fill="#00479b" stroke="#19f5aa"></path><path d="M296.5 600L418 600L428 567Z" fill="#00376f" stroke="#19f5aa"></path><path d="M428 567L609.5 600L615.5 536Z" fill="#002e59" stroke="#19f5aa"></path><path d="M722 445L715.5 332L528.5 369Z" fill="#024eb1" stroke="#19f5aa"></path><path d="M705 133L653 131L631.5 183Z" fill="#001b2f" stroke="#19f5aa"></path><path d="M258 322L218 390L287.5 470Z" fill="#00101c" stroke="#19f5aa"></path><path d="M181.5 387L218 390L172.5 332Z" fill="#024eb1" stroke="#19f5aa"></path><path d="M218 390L258 322L172.5 332Z" fill="#024eb1" stroke="#19f5aa"></path><path d="M492.5 143L371.5 118L433 198Z" fill="#002444" stroke="#19f5aa"></path><path d="M218 390L259 510L287.5 470Z" fill="#00376f" stroke="#19f5aa"></path><path d="M287.5 470L296.5 600L428 567Z" fill="#002e59" stroke="#19f5aa"></path><path d="M615.5 536L722 445L528.5 369Z" fill="#00101c" stroke="#19f5aa"></path><path d="M615.5 536L696 519L722 445Z" fill="#245dde" stroke="#19f5aa"></path><path d="M683 600L696 519L615.5 536Z" fill="#002444" stroke="#19f5aa"></path><path d="M418 600L609.5 600L428 567Z" fill="#1256c7" stroke="#19f5aa"></path><path d="M172.5 332L258 322L162 248Z" fill="#00101c" stroke="#19f5aa"></path><path d="M218 390L181.5 387L259 510Z" fill="#002e59" stroke="#19f5aa"></path><path d="M631.5 183L653 131L492.5 143Z" fill="#001b2f" stroke="#19f5aa"></path><path d="M492.5 143L385 53L371.5 118Z" fill="#245dde" stroke="#19f5aa"></path><path d="M705 133L631.5 183L688 295Z" fill="#003f85" stroke="#19f5aa"></path><path d="M162 248L258 322L280.5 241Z" fill="#024eb1" stroke="#19f5aa"></path><path d="M259 510L296.5 600L287.5 470Z" fill="#00479b" stroke="#19f5aa"></path><path d="M240 600L296.5 600L259 510Z" fill="#00376f" stroke="#19f5aa"></path><path d="M371.5 118L260 129L301.5 187Z" fill="#002444" stroke="#19f5aa"></path><path d="M301.5 187L260 129L280.5 241Z" fill="#1256c7" stroke="#19f5aa"></path><path d="M500 0L385 53L492.5 143Z" fill="#3763f4" stroke="#19f5aa"></path><path d="M371.5 118L320.5 0L260 129Z" fill="#1256c7" stroke="#19f5aa"></path><path d="M260 129L162 248L280.5 241Z" fill="#1256c7" stroke="#19f5aa"></path><path d="M609.5 600L683 600L615.5 536Z" fill="#002e59" stroke="#19f5aa"></path><path d="M779.5 562L811.5 420L722 445Z" fill="#002444" stroke="#19f5aa"></path><path d="M849.5 206L688 295L715.5 332Z" fill="#3763f4" stroke="#19f5aa"></path><path d="M849.5 206L705 133L688 295Z" fill="#00376f" stroke="#19f5aa"></path><path d="M536.5 0L500 0L492.5 143Z" fill="#245dde" stroke="#19f5aa"></path><path d="M136.5 600L240 600L259 510Z" fill="#001b2f" stroke="#19f5aa"></path><path d="M779.5 562L722 445L696 519Z" fill="#002e59" stroke="#19f5aa"></path><path d="M722 445L811.5 420L715.5 332Z" fill="#1256c7" stroke="#19f5aa"></path><path d="M536.5 0L492.5 143L653 131Z" fill="#3763f4" stroke="#19f5aa"></path><path d="M731 0L536.5 0L653 131Z" fill="#00101c" stroke="#19f5aa"></path><path d="M683 600L779.5 562L696 519Z" fill="#00479b" stroke="#19f5aa"></path><path d="M172.5 332L100.5 440L181.5 387Z" fill="#024eb1" stroke="#19f5aa"></path><path d="M181.5 387L100.5 440L259 510Z" fill="#00101c" stroke="#19f5aa"></path><path d="M58.5 271L100.5 440L172.5 332Z" fill="#3763f4" stroke="#19f5aa"></path><path d="M385 53L320.5 0L371.5 118Z" fill="#245dde" stroke="#19f5aa"></path><path d="M131.5 105L58.5 271L162 248Z" fill="#024eb1" stroke="#19f5aa"></path><path d="M500 0L320.5 0L385 53Z" fill="#00479b" stroke="#19f5aa"></path><path d="M900 347L849.5 206L715.5 332Z" fill="#1256c7" stroke="#19f5aa"></path><path d="M705 133L731 0L653 131Z" fill="#002444" stroke="#19f5aa"></path><path d="M100.5 440L136.5 600L259 510Z" fill="#1256c7" stroke="#19f5aa"></path><path d="M320.5 0L259 0L260 129Z" fill="#1256c7" stroke="#19f5aa"></path><path d="M131.5 105L162 248L260 129Z" fill="#024eb1" stroke="#19f5aa"></path><path d="M162 248L58.5 271L172.5 332Z" fill="#024eb1" stroke="#19f5aa"></path><path d="M100.5 440L0 552L136.5 600Z" fill="#1256c7" stroke="#19f5aa"></path><path d="M779.5 562L900 455L811.5 420Z" fill="#00479b" stroke="#19f5aa"></path><path d="M811.5 420L900 347L715.5 332Z" fill="#00479b" stroke="#19f5aa"></path><path d="M683 600L808.5 600L779.5 562Z" fill="#001b2f" stroke="#19f5aa"></path><path d="M158.5 0L131.5 105L260 129Z" fill="#1256c7" stroke="#19f5aa"></path><path d="M900 375L900 347L811.5 420Z" fill="#1256c7" stroke="#19f5aa"></path><path d="M900 455L900 375L811.5 420Z" fill="#002444" stroke="#19f5aa"></path><path d="M840.5 98L731 0L705 133Z" fill="#024eb1" stroke="#19f5aa"></path><path d="M900 600L900 455L779.5 562Z" fill="#00376f" stroke="#19f5aa"></path><path d="M900 149L840.5 98L849.5 206Z" fill="#245dde" stroke="#19f5aa"></path><path d="M849.5 206L840.5 98L705 133Z" fill="#245dde" stroke="#19f5aa"></path><path d="M900 347L900 209L849.5 206Z" fill="#00376f" stroke="#19f5aa"></path><path d="M259 0L158.5 0L260 129Z" fill="#245dde" stroke="#19f5aa"></path><path d="M0 203L0 235L58.5 271Z" fill="#00479b" stroke="#19f5aa"></path><path d="M0 235L0 424L58.5 271Z" fill="#024eb1" stroke="#19f5aa"></path><path d="M58.5 271L0 424L100.5 440Z" fill="#00376f" stroke="#19f5aa"></path><path d="M900 209L900 149L849.5 206Z" fill="#00376f" stroke="#19f5aa"></path><path d="M840.5 98L831.5 0L731 0Z" fill="#003f85" stroke="#19f5aa"></path><path d="M0 203L58.5 271L131.5 105Z" fill="#003f85" stroke="#19f5aa"></path><path d="M0 129L0 203L131.5 105Z" fill="#003f85" stroke="#19f5aa"></path><path d="M808.5 600L900 600L779.5 562Z" fill="#001b2f" stroke="#19f5aa"></path><path d="M0 424L0 552L100.5 440Z" fill="#002444" stroke="#19f5aa"></path><path d="M900 0L831.5 0L840.5 98Z" fill="#002e59" stroke="#19f5aa"></path><path d="M0 0L0 129L131.5 105Z" fill="#003f85" stroke="#19f5aa"></path><path d="M0 552L0 600L136.5 600Z" fill="#00376f" stroke="#19f5aa"></path><path d="M900 149L900 0L840.5 98Z" fill="#3763f4" stroke="#19f5aa"></path><path d="M158.5 0L0 0L131.5 105Z" fill="#024eb1" stroke="#19f5aa"></path></g></svg>