<svg id="visual" viewBox="0 0 540 960" width="540" height="960" xmlns="http://www.w3.org/2000/svg" xmlns:xlink="http://www.w3.org/1999/xlink" version="1.1"><path d="M0 222L8.2 236.3C16.3 250.7 32.7 279.3 49 303.3C65.3 327.3 81.7 346.7 98 362.7C114.3 378.7 130.7 391.3 147 375.3C163.3 359.3 179.7 314.7 196 289.2C212.3 263.7 228.7 257.3 245.2 278.2C261.7 299 278.3 347 294.8 340.5C311.3 334 327.7 273 344 268.2C360.3 263.3 376.7 314.7 393 300.3C409.3 286 425.7 206 442 186.8C458.3 167.7 474.7 209.3 491 228.5C507.3 247.7 523.7 244.3 531.8 242.7L540 241L540 0L531.8 0C523.7 0 507.3 0 491 0C474.7 0 458.3 0 442 0C425.7 0 409.3 0 393 0C376.7 0 360.3 0 344 0C327.7 0 311.3 0 294.8 0C278.3 0 261.7 0 245.2 0C228.7 0 212.3 0 196 0C179.7 0 163.3 0 147 0C130.7 0 114.3 0 98 0C81.7 0 65.3 0 49 0C32.7 0 16.3 0 8.2 0L0 0Z" fill="#3763f4"></path><path d="M0 327L8.2 339.8C16.3 352.7 32.7 378.3 49 402.3C65.3 426.3 81.7 448.7 98 459.8C114.3 471 130.7 471 147 455C163.3 439 179.7 407 196 389.5C212.3 372 228.7 369 245.2 386.7C261.7 404.3 278.3 442.7 294.8 441C311.3 439.3 327.7 397.7 344 392.8C360.3 388 376.7 420 393 400.8C409.3 381.7 425.7 311.3 442 290.5C458.3 269.7 474.7 298.3 491 324C507.3 349.7 523.7 372.3 531.8 383.7L540 395L540 239L531.8 240.7C523.7 242.3 507.3 245.7 491 226.5C474.7 207.3 458.3 165.7 442 184.8C425.7 204 409.3 284 393 298.3C376.7 312.7 360.3 261.3 344 266.2C327.7 271 311.3 332 294.8 338.5C278.3 345 261.7 297 245.2 276.2C228.7 255.3 212.3 261.7 196 287.2C179.7 312.7 163.3 357.3 147 373.3C130.7 389.3 114.3 376.7 98 360.7C81.7 344.7 65.3 325.3 49 301.3C32.7 277.3 16.3 248.7 8.2 234.3L0 220Z" fill="#0096ff"></path><path d="M0 404L8.2 421.7C16.3 439.3 32.7 474.7 49 501.8C65.3 529 81.7 548 98 565.5C114.3 583 130.7 599 147 586.3C163.3 573.7 179.7 532.3 196 519.7C212.3 507 228.7 523 245.2 548.5C261.7 574 278.3 609 294.8 610.5C311.3 612 327.7 580 344 575.2C360.3 570.3 376.7 592.7 393 559.2C409.3 525.7 425.7 436.3 442 406C458.3 375.7 474.7 404.3 491 426.7C507.3 449 523.7 465 531.8 473L540 481L540 393L531.8 381.7C523.7 370.3 507.3 347.7 491 322C474.7 296.3 458.3 267.7 442 288.5C425.7 309.3 409.3 379.7 393 398.8C376.7 418 360.3 386 344 390.8C327.7 395.7 311.3 437.3 294.8 439C278.3 440.7 261.7 402.3 245.2 384.7C228.7 367 212.3 370 196 387.5C179.7 405 163.3 437 147 453C130.7 469 114.3 469 98 457.8C81.7 446.7 65.3 424.3 49 400.3C32.7 376.3 16.3 350.7 8.2 337.8L0 325Z" fill="#00beff"></path><path d="M0 855L8.2 829.5C16.3 804 32.7 753 49 735.5C65.3 718 81.7 734 98 754.8C114.3 775.7 130.7 801.3 147 801.3C163.3 801.3 179.7 775.7 196 774C212.3 772.3 228.7 794.7 245.2 807.5C261.7 820.3 278.3 823.7 294.8 810.8C311.3 798 327.7 769 344 761C360.3 753 376.7 766 393 759.7C409.3 753.3 425.7 727.7 442 727.7C458.3 727.7 474.7 753.3 491 753.3C507.3 753.3 523.7 727.7 531.8 714.8L540 702L540 479L531.8 471C523.7 463 507.3 447 491 424.7C474.7 402.3 458.3 373.7 442 404C425.7 434.3 409.3 523.7 393 557.2C376.7 590.7 360.3 568.3 344 573.2C327.7 578 311.3 610 294.8 608.5C278.3 607 261.7 572 245.2 546.5C228.7 521 212.3 505 196 517.7C179.7 530.3 163.3 571.7 147 584.3C130.7 597 114.3 581 98 563.5C81.7 546 65.3 527 49 499.8C32.7 472.7 16.3 437.3 8.2 419.7L0 402Z" fill="#00dfef"></path><path d="M0 961L8.2 961C16.3 961 32.7 961 49 961C65.3 961 81.7 961 98 961C114.3 961 130.7 961 147 961C163.3 961 179.7 961 196 961C212.3 961 228.7 961 245.2 961C261.7 961 278.3 961 294.8 961C311.3 961 327.7 961 344 961C360.3 961 376.7 961 393 961C409.3 961 425.7 961 442 961C458.3 961 474.7 961 491 961C507.3 961 523.7 961 531.8 961L540 961L540 700L531.8 712.8C523.7 725.7 507.3 751.3 491 751.3C474.7 751.3 458.3 725.7 442 725.7C425.7 725.7 409.3 751.3 393 757.7C376.7 764 360.3 751 344 759C327.7 767 311.3 796 294.8 808.8C278.3 821.7 261.7 818.3 245.2 805.5C228.7 792.7 212.3 770.3 196 772C179.7 773.7 163.3 799.3 147 799.3C130.7 799.3 114.3 773.7 98 752.8C81.7 732 65.3 716 49 733.5C32.7 751 16.3 802 8.2 827.5L0 853Z" fill="#19f5aa"></path></svg>