<svg id="visual" viewBox="0 0 540 960" width="540" height="960" xmlns="http://www.w3.org/2000/svg" xmlns:xlink="http://www.w3.org/1999/xlink" version="1.1"><rect x="0" y="0" width="540" height="960" fill="#27262e"></rect><path d="M93 0L131.5 9.3C170 18.7 247 37.3 242.2 56.2C237.3 75 150.7 94 149.2 112.8C147.7 131.7 231.3 150.3 231.3 169.2C231.3 188 147.7 207 136.7 225.8C125.7 244.7 187.3 263.3 192.2 282.2C197 301 145 320 112.8 338.8C80.7 357.7 68.3 376.3 75.2 395.2C82 414 108 433 128.8 451.8C149.7 470.7 165.3 489.3 157.7 508.2C150 527 119 546 118.2 564.8C117.3 583.7 146.7 602.3 170.7 621.2C194.7 640 213.3 659 203.2 677.8C193 696.7 154 715.3 138.7 734.2C123.3 753 131.7 772 158.8 790.8C186 809.7 232 828.3 261 847.2C290 866 302 885 269.7 903.8C237.3 922.7 160.7 941.3 122.3 950.7L84 960L0 960L0 950.7C0 941.3 0 922.7 0 903.8C0 885 0 866 0 847.2C0 828.3 0 809.7 0 790.8C0 772 0 753 0 734.2C0 715.3 0 696.7 0 677.8C0 659 0 640 0 621.2C0 602.3 0 583.7 0 564.8C0 546 0 527 0 508.2C0 489.3 0 470.7 0 451.8C0 433 0 414 0 395.2C0 376.3 0 357.7 0 338.8C0 320 0 301 0 282.2C0 263.3 0 244.7 0 225.8C0 207 0 188 0 169.2C0 150.3 0 131.7 0 112.8C0 94 0 75 0 56.2C0 37.3 0 18.7 0 9.3L0 0Z" fill="#19f5aa" stroke-linecap="round" stroke-linejoin="miter"></path></svg>