<svg id="visual" viewBox="0 0 900 675" width="900" height="675" xmlns="http://www.w3.org/2000/svg" xmlns:xlink="http://www.w3.org/1999/xlink" version="1.1"><rect x="0" y="0" width="900" height="675" fill="#2d2c38"></rect><defs><linearGradient id="grad1_0" x1="25%" y1="0%" x2="100%" y2="100%"><stop offset="23.333333333333336%" stop-color="#19f5aa" stop-opacity="1"></stop><stop offset="76.66666666666666%" stop-color="#19f5aa" stop-opacity="1"></stop></linearGradient></defs><defs><linearGradient id="grad1_1" x1="25%" y1="0%" x2="100%" y2="100%"><stop offset="23.333333333333336%" stop-color="#19f5aa" stop-opacity="1"></stop><stop offset="76.66666666666666%" stop-color="#008bad" stop-opacity="1"></stop></linearGradient></defs><defs><linearGradient id="grad1_2" x1="25%" y1="0%" x2="100%" y2="100%"><stop offset="23.333333333333336%" stop-color="#2d2c38" stop-opacity="1"></stop><stop offset="76.66666666666666%" stop-color="#008bad" stop-opacity="1"></stop></linearGradient></defs><defs><linearGradient id="grad2_0" x1="0%" y1="0%" x2="75%" y2="100%"><stop offset="23.333333333333336%" stop-color="#19f5aa" stop-opacity="1"></stop><stop offset="76.66666666666666%" stop-color="#19f5aa" stop-opacity="1"></stop></linearGradient></defs><defs><linearGradient id="grad2_1" x1="0%" y1="0%" x2="75%" y2="100%"><stop offset="23.333333333333336%" stop-color="#008bad" stop-opacity="1"></stop><stop offset="76.66666666666666%" stop-color="#19f5aa" stop-opacity="1"></stop></linearGradient></defs><defs><linearGradient id="grad2_2" x1="0%" y1="0%" x2="75%" y2="100%"><stop offset="23.333333333333336%" stop-color="#008bad" stop-opacity="1"></stop><stop offset="76.66666666666666%" stop-color="#2d2c38" stop-opacity="1"></stop></linearGradient></defs><g transform="translate(900, 0)"><path d="M0 393.8C-26.7 355.8 -53.4 317.9 -81.3 303.3C-109.1 288.7 -138.1 297.5 -173 299.6C-207.9 301.8 -248.7 297.4 -278.4 278.4C-308.2 259.4 -326.9 225.9 -331.7 191.5C-336.4 157.1 -327.2 121.9 -335.2 89.8C-343.2 57.8 -368.5 28.9 -393.7 0L0 0Z" fill="#2e5778"></path><path d="M0 262.5C-17.8 237.2 -35.6 211.9 -54.2 202.2C-72.7 192.5 -92.1 198.3 -115.3 199.8C-138.6 201.2 -165.8 198.3 -185.6 185.6C-205.5 173 -218 150.6 -221.1 127.7C-224.3 104.7 -218.1 81.2 -223.5 59.9C-228.8 38.5 -245.6 19.3 -262.5 0L0 0Z" fill="#00c2c0"></path><path d="M0 131.3C-8.9 118.6 -17.8 106 -27.1 101.1C-36.4 96.2 -46 99.2 -57.7 99.9C-69.3 100.6 -82.9 99.1 -92.8 92.8C-102.7 86.5 -109 75.3 -110.6 63.8C-112.1 52.4 -109.1 40.6 -111.7 29.9C-114.4 19.3 -122.8 9.6 -131.2 0L0 0Z" fill="#19f5aa"></path></g><g transform="translate(0, 675)"><path d="M0 -393.7C34.4 -392.2 68.8 -390.7 101.9 -380.3C135 -370 166.9 -350.9 187.5 -324.8C208.1 -298.7 217.4 -265.6 244 -244C270.5 -222.3 314.4 -212 320.4 -185C326.4 -158 294.5 -114.1 300.4 -80.5C306.3 -46.9 350 -23.4 393.8 0L0 0Z" fill="#2e5778"></path><path d="M0 -262.5C22.9 -261.5 45.9 -260.4 67.9 -253.6C90 -246.7 111.3 -233.9 125 -216.5C138.7 -199.1 144.9 -177.1 162.6 -162.6C180.4 -148.2 209.6 -141.4 213.6 -123.3C217.6 -105.3 196.3 -76.1 200.3 -53.7C204.2 -31.2 233.4 -15.6 262.5 0L0 0Z" fill="#00c2c0"></path><path d="M0 -131.2C11.5 -130.7 22.9 -130.2 34 -126.8C45 -123.3 55.6 -117 62.5 -108.3C69.4 -99.6 72.5 -88.5 81.3 -81.3C90.2 -74.1 104.8 -70.7 106.8 -61.7C108.8 -52.7 98.2 -38 100.1 -26.8C102.1 -15.6 116.7 -7.8 131.3 0L0 0Z" fill="#19f5aa"></path></g></svg>